<svg width="22" height="27" viewBox="0 0 22 27" fill="none" xmlns="http://www.w3.org/2000/svg">
<path opacity="0.1" fill-rule="evenodd" clip-rule="evenodd" d="M2.2002 18.1228C2.28478 18.0976 2.36041 18.0641 2.42709 18.0223C2.43078 18.026 2.43448 18.0298 2.43816 18.0335C2.47137 18.0149 2.50457 17.9963 2.53777 17.9777C2.54236 17.9828 2.54789 17.9865 2.55438 17.9888C2.5858 17.9674 2.619 17.9487 2.65399 17.933C2.66047 17.9353 2.66601 17.939 2.67059 17.9442C2.70286 17.927 2.73422 17.9083 2.76467 17.8883C2.77115 17.8907 2.77669 17.8944 2.78127 17.8995C2.82736 17.8763 2.87163 17.8503 2.91408 17.8213C2.91867 17.8265 2.9242 17.8302 2.93069 17.8325C3.04306 17.7782 3.15558 17.7336 3.26826 17.6985C3.27185 17.6754 3.28108 17.6717 3.29593 17.6873C3.33499 17.6556 3.37188 17.6407 3.40661 17.6427C3.4416 17.6269 3.4748 17.6083 3.50622 17.5868C3.51271 17.5892 3.51824 17.5929 3.52282 17.598C3.5551 17.5808 3.58645 17.5622 3.6169 17.5422C3.6371 17.5541 3.65002 17.5466 3.65564 17.5199C3.66022 17.525 3.66576 17.5287 3.67224 17.531C3.70683 17.5164 3.7382 17.4979 3.76632 17.4752C3.7709 17.4803 3.77644 17.484 3.78292 17.4864C3.91075 17.423 4.03618 17.3728 4.15923 17.3356C4.18598 17.3174 4.21365 17.3007 4.24224 17.2854C4.24682 17.2905 4.25236 17.2942 4.25884 17.2965C4.33112 17.2607 4.40491 17.229 4.4802 17.2016C4.43064 17.132 4.40482 17.0539 4.40273 16.9671C4.42084 16.8024 4.46879 16.648 4.54661 16.5037C4.63016 16.3692 4.72424 16.2427 4.82884 16.1241C7.29634 13.6337 9.76262 11.1418 12.2278 8.64826C12.297 8.57948 12.3707 8.51628 12.4491 8.45844C12.4455 8.45475 12.4417 8.45096 12.4381 8.44727C12.58 8.33293 12.7239 8.22127 12.8697 8.11228C12.883 8.10223 12.8922 8.08917 12.8974 8.0732C12.9019 8.07834 12.9075 8.08202 12.914 8.08437C12.949 8.05835 12.9803 8.02854 13.0081 7.99504C13.016 8.00564 13.0252 8.00754 13.0357 8.00062C13.0785 7.96489 13.1209 7.9296 13.163 7.89454C13.2748 7.83703 13.3874 7.77372 13.5006 7.70471C13.6152 7.64966 13.7277 7.59015 13.8382 7.52605C13.8529 7.52605 13.8677 7.52605 13.8824 7.52605C13.9203 7.49378 13.9609 7.47514 14.0042 7.47022C14.0793 7.42578 14.1587 7.3886 14.2422 7.35856C14.2487 7.36089 14.2542 7.36459 14.2588 7.36973C14.2901 7.35392 14.3196 7.3353 14.3473 7.3139C14.3518 7.319 14.3574 7.32273 14.3639 7.32506C14.386 7.3139 14.4082 7.30273 14.4303 7.29156C14.4368 7.2939 14.4424 7.29763 14.4469 7.30273C14.4691 7.28785 14.4912 7.27295 14.5133 7.25806C14.5179 7.26317 14.5234 7.2669 14.5299 7.26923C14.5755 7.25678 14.6179 7.23817 14.6572 7.2134C14.683 7.2134 14.7089 7.2134 14.7347 7.2134C14.8097 7.18571 14.8835 7.15966 14.956 7.13524C14.9757 7.14617 14.9942 7.14245 15.0114 7.12407C15.0358 7.12544 15.0599 7.12544 15.0833 7.12407C15.0966 7.10578 15.1114 7.10206 15.1276 7.1129C15.1414 7.10687 15.1543 7.09943 15.1663 7.09057C15.2002 7.09177 15.2334 7.09177 15.2659 7.09057C15.2962 7.07716 15.3256 7.06599 15.3545 7.05707C15.373 7.06079 15.3913 7.06452 15.4098 7.06824C15.4356 7.05707 15.4615 7.04591 15.4873 7.03474C15.5317 7.04067 15.5777 7.04067 15.6257 7.03474C15.6365 7.02941 15.6457 7.02198 15.6533 7.01241C15.6939 7.01613 15.7345 7.01986 15.7751 7.02357C15.7861 7.01613 15.7972 7.00869 15.8083 7.00124C15.8341 7.00496 15.86 7.00869 15.8858 7.01241C15.9079 7.00496 15.93 6.99752 15.9522 6.99007C16.0324 6.99111 16.1135 6.99483 16.1957 7.00124C16.2031 6.99379 16.2104 6.98636 16.2178 6.97891C16.2399 6.97891 16.2621 6.97891 16.2842 6.97891C16.3191 6.99111 16.3523 6.99855 16.3838 7.00124C16.3912 6.99379 16.3985 6.98636 16.4059 6.97891C16.4281 6.97891 16.4502 6.97891 16.4724 6.97891C16.4834 6.98636 16.4945 6.99379 16.5056 7.00124C16.5582 6.99241 16.6136 6.98869 16.6716 6.99007C16.6826 6.99752 16.6937 7.00496 16.7048 7.01241C16.7306 7.00869 16.7565 7.00496 16.7823 7.00124C16.7933 7.00869 16.8044 7.01613 16.8155 7.02357C16.8487 7.01986 16.8819 7.01613 16.9151 7.01241C16.94 7.03089 16.9658 7.03461 16.9925 7.02357C17.0036 7.03102 17.0147 7.03846 17.0258 7.04591C17.0491 7.04505 17.0712 7.04132 17.0922 7.03474C17.1171 7.05322 17.1429 7.05694 17.1696 7.04591C17.1807 7.05335 17.1918 7.06079 17.2028 7.06824C17.2426 7.07237 17.2795 7.07237 17.3135 7.06824C17.3541 7.08312 17.3946 7.09802 17.4353 7.1129C17.4493 7.11161 17.464 7.10789 17.4795 7.10174C17.5053 7.1129 17.5312 7.12407 17.557 7.13524C17.5787 7.12012 17.6008 7.12384 17.6234 7.1464C17.6383 7.13843 17.6531 7.14216 17.6677 7.15757C17.6862 7.15757 17.7046 7.15757 17.723 7.15757C17.7392 7.17903 17.7577 7.18648 17.7784 7.1799C17.8136 7.19504 17.8468 7.20621 17.878 7.2134C17.8987 7.20682 17.9172 7.21427 17.9333 7.23573C17.937 7.23201 17.9407 7.22828 17.9444 7.22457C17.9942 7.24875 18.0458 7.26737 18.0993 7.2804C18.103 7.27668 18.1068 7.27295 18.1104 7.26923C18.1231 7.28311 18.138 7.29428 18.1547 7.30273C18.1732 7.30273 18.1915 7.30273 18.21 7.30273C18.2801 7.33623 18.3503 7.36973 18.4203 7.40323C18.424 7.39954 18.4277 7.39574 18.4314 7.39206C18.4757 7.41439 18.5199 7.43672 18.5642 7.45906C18.5679 7.45537 18.5716 7.45158 18.5753 7.44789C18.5938 7.46274 18.6121 7.4777 18.6306 7.49256C18.6343 7.48887 18.638 7.48507 18.6417 7.48139C18.6578 7.50283 18.6763 7.51031 18.697 7.50372C18.7155 7.51857 18.7339 7.53354 18.7524 7.54839C18.7671 7.54839 18.7819 7.54839 18.7966 7.54839C18.9484 7.63024 19.107 7.72325 19.2726 7.82754C19.2762 7.82386 19.28 7.82006 19.2836 7.81638C19.3462 7.84876 19.4053 7.89342 19.4607 7.95037C19.4644 7.94669 19.4681 7.94289 19.4718 7.93921C19.5017 7.97427 19.5349 7.9966 19.5714 8.0062C19.6598 8.06505 19.7447 8.13573 19.826 8.21836C19.8296 8.21468 19.8334 8.21088 19.837 8.2072C19.8628 8.23321 19.8887 8.25934 19.9145 8.28536C19.9181 8.28168 19.9219 8.27788 19.9256 8.27419C20.0212 8.3595 20.1134 8.44883 20.2023 8.54218C20.2059 8.5385 20.2097 8.5347 20.2133 8.53102C21.6228 9.94165 22.1984 11.6538 21.9399 13.6675C21.7379 14.8231 21.2527 15.8281 20.4845 16.6824C17.0719 20.1179 13.663 23.5571 10.2577 27C9.65747 26.4124 9.23135 25.7053 8.97934 24.8784C8.53462 23.2538 8.78365 21.7576 9.72642 20.3896C9.87396 20.2109 10.0216 20.0323 10.1691 19.8536C12.8511 17.1552 15.5259 14.4567 18.1934 11.7581C18.3443 11.6409 18.5065 11.5404 18.6804 11.4566C18.7057 11.462 18.7296 11.4546 18.7524 11.4342C18.7569 11.4394 18.7624 11.4431 18.769 11.4454C18.7985 11.4342 18.828 11.4231 18.8575 11.4119C18.9096 11.4203 18.9594 11.4203 19.0069 11.4119C19.018 11.4194 19.0291 11.4268 19.0401 11.4342C19.0899 11.4294 19.1342 11.4518 19.1729 11.5012C19.5305 10.5762 19.8977 9.65122 20.2742 8.72643C20.2723 8.72084 20.2706 8.71526 20.2687 8.70968C20.2058 8.73067 20.1505 8.7568 20.1026 8.78784C20.0981 8.7827 20.0926 8.77902 20.086 8.77668C20.052 8.79108 20.0206 8.80973 19.992 8.83251C19.95 8.83195 19.9113 8.8468 19.8758 8.87717C19.8692 8.87483 19.8637 8.87114 19.8592 8.866C19.7463 8.91815 19.63 8.97019 19.5105 9.02233C19.504 9.01999 19.4984 9.0163 19.4939 9.01117C19.4573 9.03316 19.4203 9.0555 19.3832 9.07816C19.3426 9.07604 19.3058 9.09089 19.2726 9.12283C19.2364 9.11792 19.1994 9.13277 19.1619 9.16749C19.1161 9.16917 19.0681 9.18782 19.018 9.22332C19.0143 9.21964 19.0106 9.21584 19.0069 9.21216C18.894 9.26431 18.7778 9.31634 18.6583 9.36849C18.6518 9.36614 18.6462 9.36246 18.6417 9.35732C18.6048 9.37965 18.5679 9.40199 18.531 9.42432C18.49 9.42242 18.4532 9.43727 18.4203 9.46898C18.4158 9.46385 18.4102 9.46016 18.4037 9.45782C18.3677 9.47501 18.3328 9.49366 18.2986 9.51365C18.2949 9.50996 18.2912 9.50617 18.2875 9.50248C18.2397 9.53486 18.1954 9.5534 18.1547 9.55831C18.1205 9.5783 18.0855 9.59695 18.0495 9.61414C18.043 9.6118 18.0375 9.60811 18.0329 9.60298C17.9562 9.62676 17.8824 9.66406 17.8116 9.71464C17.771 9.71252 17.7341 9.72737 17.7009 9.75931C17.6572 9.75841 17.6129 9.77695 17.5681 9.81514C17.5495 9.80285 17.5329 9.80654 17.5183 9.8263C17.5739 9.89821 17.5961 9.98017 17.5847 10.072C17.5828 10.1129 17.581 10.1538 17.5792 10.1948C17.4895 10.5042 17.3253 10.7629 17.0866 10.9708C16.2934 11.786 15.4854 12.6011 14.6627 13.4163C13.9655 14.1346 13.2571 14.8492 12.5377 15.5602C11.8404 16.2785 11.1321 16.9931 10.4126 17.7041C10.2909 17.8418 10.1544 17.9796 10.0031 18.1172C9.39472 18.7804 8.67165 19.281 7.8338 19.6191C7.8069 19.627 7.78112 19.6382 7.75632 19.6526C7.74979 19.6503 7.74426 19.6466 7.73972 19.6414C7.70718 19.6648 7.67763 19.6834 7.65118 19.6973C7.62351 19.6903 7.59772 19.6978 7.5737 19.7196C7.57005 19.7159 7.56629 19.7121 7.56263 19.7084C7.53862 19.7302 7.51283 19.7377 7.48516 19.7308C7.46114 19.7525 7.43535 19.76 7.40768 19.7531C7.38909 19.7777 7.36695 19.7851 7.34128 19.7754C7.31848 19.7958 7.29457 19.8032 7.26933 19.7978C7.25694 19.8104 7.24211 19.8179 7.22506 19.8201C7.22141 19.8052 7.21765 19.8052 7.21399 19.8201C7.15666 19.829 7.09944 19.8476 7.04244 19.8759C7.01798 19.8746 6.99396 19.8746 6.9705 19.8759C6.92213 19.8944 6.87609 19.9092 6.83215 19.9206C6.81366 19.9169 6.79529 19.9131 6.77681 19.9094C6.76485 19.9305 6.75013 19.9343 6.73254 19.9206C6.70365 19.9295 6.67421 19.9407 6.64399 19.9541C6.62551 19.9504 6.60714 19.9466 6.58865 19.9429C6.58124 19.9504 6.57393 19.9578 6.56652 19.9653C6.54803 19.9616 6.52966 19.9578 6.51118 19.9541C6.50011 19.9616 6.48904 19.9689 6.47797 19.9764C6.43171 19.983 6.38744 19.983 6.34516 19.9764C6.33409 19.9839 6.32302 19.9913 6.31195 19.9988C6.28362 19.9922 6.25407 19.9885 6.22341 19.9876C6.21599 19.9951 6.20869 20.0024 6.20127 20.0099C6.08074 20.0199 5.96265 20.0199 5.8471 20.0099C5.83603 20.0174 5.82496 20.0248 5.81389 20.0323C5.74007 20.0174 5.66636 20.0174 5.59254 20.0323C5.58147 20.0248 5.5704 20.0174 5.55933 20.0099C5.49182 20.0108 5.42541 20.0146 5.36011 20.0211C5.34904 20.0136 5.33797 20.0062 5.3269 19.9988C5.28451 19.9967 5.24024 20.0005 5.19409 20.0099C5.18302 20.0024 5.17195 19.9951 5.16088 19.9876C5.10245 19.9848 5.04334 19.9848 4.9838 19.9876C4.95889 19.9692 4.9331 19.9654 4.90632 19.9764C4.89167 19.961 4.87691 19.9573 4.86205 19.9653C4.81716 19.9494 4.77288 19.9382 4.72923 19.9318C4.71437 19.9397 4.69962 19.936 4.68496 19.9206C4.65818 19.9317 4.63235 19.9279 4.60749 19.9094C4.6038 19.9131 4.6001 19.9169 4.59642 19.9206C4.56518 19.9134 4.53198 19.9023 4.49681 19.8871C4.48194 19.895 4.46719 19.8913 4.45253 19.8759C4.44885 19.8796 4.44515 19.8834 4.44147 19.8871C4.38613 19.8684 4.33079 19.8499 4.27545 19.8313C4.25379 19.8463 4.23165 19.8427 4.20904 19.8201C4.19059 19.8201 4.17215 19.8201 4.1537 19.8201C4.0836 19.7941 4.0135 19.768 3.94341 19.7419C3.92268 19.7485 3.90423 19.741 3.88807 19.7196C3.86962 19.7196 3.85118 19.7196 3.83273 19.7196C3.79952 19.701 3.76632 19.6824 3.73312 19.6638C3.72943 19.6675 3.72573 19.6713 3.72205 19.6749C3.69693 19.6552 3.67111 19.6477 3.64457 19.6526C3.61137 19.634 3.57816 19.6154 3.54496 19.5968C3.54127 19.6005 3.53758 19.6043 3.53389 19.6079C3.51773 19.5865 3.49928 19.579 3.47855 19.5856C3.4601 19.5708 3.44166 19.5558 3.42321 19.5409C3.41953 19.5446 3.41583 19.5484 3.41214 19.5521C3.36646 19.5299 3.3185 19.5039 3.26826 19.4739C3.26457 19.4776 3.26088 19.4814 3.25719 19.4851C3.23874 19.4703 3.2203 19.4553 3.20185 19.4404C3.19817 19.4441 3.19447 19.4479 3.19078 19.4516C3.17233 19.4368 3.15389 19.4218 3.13544 19.4069C3.13176 19.4106 3.12806 19.4144 3.12438 19.4181C3.10593 19.4033 3.08749 19.3883 3.06904 19.3734C3.06535 19.3771 3.06165 19.3809 3.05797 19.3846C3.0137 19.3548 2.96942 19.3251 2.92515 19.2953C2.90782 19.3015 2.89307 19.2941 2.88088 19.273C2.85199 19.2713 2.82617 19.2563 2.80341 19.2283C2.79972 19.232 2.79602 19.2358 2.79234 19.2395C2.737 19.1985 2.68166 19.1576 2.62632 19.1166C2.62263 19.1203 2.61894 19.1241 2.61525 19.1278C2.48909 19.0332 2.35996 18.9365 2.22787 18.8375C2.22418 18.8412 2.22049 18.8449 2.2168 18.8486C2.16609 18.7963 2.11259 18.7478 2.05632 18.7035C2.05263 18.6886 2.04893 18.6886 2.04525 18.7035C0.529977 17.3534 -0.143333 15.6561 0.0253433 13.6117C0.201313 12.2448 0.758409 11.0872 1.69661 10.139C5.0502 6.7593 8.4038 3.37966 11.7574 0C12.8493 1.14462 13.3362 2.51807 13.2184 4.12035C13.0846 5.29949 12.627 6.30446 11.8459 7.13524C9.70982 9.28664 7.5737 11.4379 5.43758 13.5893C5.37881 13.6506 5.32535 13.7176 5.2771 13.7903C4.8073 14.2601 4.33874 14.731 3.87146 15.2029C3.78705 15.2716 3.70219 15.3404 3.6169 15.4094C3.52931 15.4564 3.44261 15.5048 3.3568 15.5546C3.35222 15.5495 3.34669 15.5458 3.3402 15.5434C3.29727 15.5637 3.25485 15.5824 3.21292 15.5993C3.19323 15.5883 3.17479 15.592 3.15758 15.6104C3.14211 15.6043 3.12734 15.6006 3.11331 15.5993C3.09321 15.6209 3.07107 15.6284 3.0469 15.6216C3.03583 15.6141 3.02476 15.6067 3.0137 15.5993C2.98418 15.6141 2.95467 15.6141 2.92515 15.5993C2.89044 15.5789 2.85724 15.5566 2.82554 15.5323C2.45456 16.4594 2.08379 17.3862 1.71321 18.3127C1.7169 18.3163 1.72059 18.3201 1.72428 18.3238C1.78528 18.2991 1.84801 18.2693 1.91243 18.2345C1.92729 18.2501 1.93652 18.2464 1.9401 18.2233C1.94379 18.227 1.94749 18.2308 1.95117 18.2345C1.98345 18.2173 2.0148 18.1986 2.04525 18.1787C2.09113 18.1752 2.13355 18.1567 2.17253 18.1228C2.18334 18.137 2.19257 18.137 2.2002 18.1228Z" fill="white"/>
<path opacity="0.01" fill-rule="evenodd" clip-rule="evenodd" d="M13.5017 7.70644C13.4942 7.6916 13.4942 7.6916 13.5017 7.70644V7.70644Z" fill="#256CFA"/>
<path opacity="0.01" fill-rule="evenodd" clip-rule="evenodd" d="M2.20084 18.1283C2.19347 18.1135 2.19347 18.1135 2.20084 18.1283V18.1283Z" fill="#256CFA"/>
<path opacity="0.01" fill-rule="evenodd" clip-rule="evenodd" d="M2.04688 18.7031C2.051 18.7031 2.05514 18.7031 2.05926 18.7031C2.05697 18.7115 2.05283 18.7115 2.04688 18.7031Z" fill="#256CFA"/>
<path opacity="0.01" fill-rule="evenodd" clip-rule="evenodd" d="M7.83203 19.625C7.84851 19.6334 7.84851 19.6334 7.83203 19.625V19.625Z" fill="#256CFA"/>
<path opacity="0.01" fill-rule="evenodd" clip-rule="evenodd" d="M7.21094 19.8203C7.21503 19.8203 7.21924 19.8203 7.22333 19.8203C7.22097 19.8287 7.21688 19.8287 7.21094 19.8203Z" fill="#256CFA"/>
</svg>
